<?xml version="1.0" standalone="no"?>
<!DOCTYPE svg PUBLIC "-//W3C//DTD SVG 20010904//EN"
 "http://www.w3.org/TR/2001/REC-SVG-20010904/DTD/svg10.dtd">
<svg version="1.0" xmlns="http://www.w3.org/2000/svg"
 width="1448.000000pt" height="702.000000pt" viewBox="0 0 1448.000000 702.000000"
 preserveAspectRatio="xMidYMid meet">

<g transform="translate(0.000000,702.000000) scale(0.100000,-0.100000)"
fill="#000000" stroke="none">
<path d="M6005 6499 c-16 -7 -13 -8 13 -5 28 4 31 2 21 -10 -9 -12 -6 -14 17
-13 16 0 23 3 17 6 -20 8 -15 22 7 20 11 -1 20 -7 20 -14 0 -21 27 -15 33 7 5
18 0 20 -51 19 -32 0 -66 -5 -77 -10z"/>
<path d="M6150 6499 c0 -5 5 -7 10 -4 6 3 10 8 10 11 0 2 -4 4 -10 4 -5 0 -10
-5 -10 -11z"/>
<path d="M5371 6269 c-31 -16 -70 -48 -46 -37 44 19 85 44 85 50 0 5 -1 7 -2
7 -2 -1 -18 -10 -37 -20z"/>
<path d="M5469 6274 c-8 -10 -5 -15 15 -20 31 -7 56 1 56 18 0 17 -57 19 -71
2z"/>
<path d="M5550 6270 c0 -5 7 -10 15 -10 8 0 15 5 15 10 0 6 -7 10 -15 10 -8 0
-15 -4 -15 -10z"/>
<path d="M2910 6154 c-172 -19 -284 -53 -438 -134 -278 -145 -505 -431 -596
-751 -49 -172 -70 -336 -69 -549 1 -288 45 -612 128 -940 57 -224 213 -680
328 -960 68 -166 205 -479 227 -518 5 -10 57 -116 116 -237 191 -394 434 -810
584 -1000 234 -299 508 -427 700 -330 103 52 219 202 262 337 37 118 89 323
108 423 90 475 133 606 233 712 65 69 106 94 170 102 l52 7 -60 23 c-71 27
-168 26 -228 -3 -49 -24 -135 -110 -187 -186 -62 -92 -143 -297 -212 -535 -92
-324 -140 -445 -209 -528 -36 -44 -76 -49 -138 -17 -150 76 -470 597 -666
1085 -18 44 -62 152 -98 240 -133 327 -225 582 -293 815 -109 372 -151 559
-210 935 -21 135 -37 435 -30 565 18 349 87 539 260 710 151 151 318 206 555
182 175 -17 275 -43 511 -132 114 -43 411 -136 535 -167 156 -39 337 -39 512
0 175 40 312 93 417 162 93 61 225 177 208 183 -6 2 -32 -8 -59 -21 -74 -38
-246 -87 -352 -102 -111 -15 -275 -10 -364 9 -122 28 -253 64 -307 86 -88 35
-399 195 -491 253 -107 68 -379 197 -484 230 -44 15 -107 31 -140 36 -72 12
-226 20 -275 15z"/>
<path d="M5000 6060 c-8 -5 -10 -10 -5 -10 6 0 17 5 25 10 8 5 11 10 5 10 -5
0 -17 -5 -25 -10z"/>
<path d="M4895 6010 c-16 -7 -17 -9 -3 -9 9 -1 18 -7 21 -13 3 -7 4 -3 4 10
-1 12 -1 22 -2 21 0 0 -9 -4 -20 -9z"/>
<path d="M4819 5975 c-3 -2 -72 -18 -154 -35 -159 -32 -245 -37 -339 -19 -32
6 -60 8 -63 6 -8 -9 82 -56 155 -82 110 -38 229 -55 391 -55 144 0 317 20 350
41 12 7 3 9 -31 5 -38 -4 -48 -2 -48 10 0 21 -15 17 -29 -8 -11 -22 -11 -22
-6 -1 5 17 0 23 -30 33 -19 6 -35 16 -35 22 0 6 -9 3 -19 -6 -11 -10 -28 -16
-38 -13 -16 4 -16 5 0 6 9 0 17 5 17 11 0 5 -6 7 -14 4 -8 -3 -17 -1 -21 5 -4
7 -15 5 -33 -6 -26 -17 -26 -17 -13 0 12 15 12 17 -3 11 -11 -4 -16 -1 -16 10
0 9 -7 16 -15 16 -20 0 -19 20 3 36 9 7 12 14 6 14 -6 0 -13 -2 -15 -5z m-19
-35 c0 -5 -9 -10 -21 -10 -11 0 -17 5 -14 10 3 6 13 10 21 10 8 0 14 -4 14
-10z m-250 -50 c0 -5 -8 -10 -17 -10 -15 0 -16 2 -3 10 19 12 20 12 20 0z
m443 -44 c-5 -7 -9 -5 -11 7 -2 9 -8 14 -14 11 -7 -4 -8 -2 -4 5 6 9 11 9 22
0 7 -6 11 -16 7 -23z m-63 -7 c0 -5 -4 -9 -10 -9 -5 0 -10 7 -10 16 0 8 5 12
10 9 6 -3 10 -10 10 -16z m100 11 c0 -5 -5 -10 -11 -10 -5 0 -7 5 -4 10 3 6 8
10 11 10 2 0 4 -4 4 -10z"/>
<path d="M4835 5950 c-19 -8 -19 -9 2 -9 12 -1 25 4 28 9 7 12 -2 12 -30 0z"/>
<path d="M5047 5903 c-4 -3 -7 -11 -7 -17 0 -6 5 -5 12 2 6 6 9 14 7 17 -3 3
-9 2 -12 -2z"/>
<path d="M6526 5607 c3 -10 9 -15 12 -12 3 3 0 11 -7 18 -10 9 -11 8 -5 -6z"/>
<path d="M5818 3113 c7 -3 16 -2 19 1 4 3 -2 6 -13 5 -11 0 -14 -3 -6 -6z"/>
<path d="M5873 3103 c9 -2 25 -2 35 0 9 3 1 5 -18 5 -19 0 -27 -2 -17 -5z"/>
<path d="M5938 3093 c7 -3 16 -2 19 1 4 3 -2 6 -13 5 -11 0 -14 -3 -6 -6z"/>
<path d="M4970 3060 c-23 -7 -23 -8 -3 -9 12 -1 25 4 28 9 3 6 5 10 3 9 -2 -1
-14 -5 -28 -9z"/>
<path d="M6050 3066 c0 -2 9 -6 20 -9 11 -3 20 -1 20 4 0 5 -9 9 -20 9 -11 0
-20 -2 -20 -4z"/>
<path d="M6125 3045 c17 -7 33 -11 38 -8 4 2 7 0 7 -4 0 -5 8 -9 18 -10 9 -1
28 -4 42 -8 22 -6 23 -5 6 6 -19 12 -113 39 -131 38 -5 0 4 -7 20 -14z"/>
<path d="M5029 3043 c-10 -2 -19 -13 -22 -25 -4 -13 -10 -17 -19 -12 -7 4 -10
3 -5 -1 12 -13 46 -13 41 0 -3 7 2 18 11 25 15 12 20 5 16 -22 -2 -13 27 3 33
19 5 13 8 13 22 -1 12 -12 20 -13 35 -6 25 14 24 24 -1 17 -11 -3 -20 -1 -20
4 0 8 -56 9 -91 2z"/>
<path d="M5180 3030 c0 -5 5 -10 11 -10 5 0 7 5 4 10 -3 6 -8 10 -11 10 -2 0
-4 -4 -4 -10z"/>
<path d="M5865 3031 c-9 -15 38 -32 47 -17 12 18 9 29 -5 17 -10 -7 -17 -7
-24 0 -8 8 -13 8 -18 0z"/>
<path d="M6056 3031 c-4 -5 -2 -12 3 -15 5 -4 12 -2 15 3 4 5 2 12 -3 15 -5 4
-12 2 -15 -3z"/>
<path d="M5814 3019 c-5 -9 -2 -10 9 -6 9 3 18 2 21 -4 2 -5 3 -4 2 3 -3 17
-23 21 -32 7z"/>
<path d="M5940 3021 c0 -5 9 -11 20 -14 13 -3 20 0 20 9 0 8 -9 14 -20 14 -11
0 -20 -4 -20 -9z"/>
<path d="M4945 3000 c-3 -5 1 -10 9 -10 9 0 16 5 16 10 0 6 -4 10 -9 10 -6 0
-13 -4 -16 -10z"/>
<path d="M4775 2985 l-30 -13 31 -1 c20 -1 34 5 38 14 7 18 0 18 -39 0z"/>
<path d="M4700 2689 c0 -5 5 -7 10 -4 6 3 10 8 10 11 0 2 -4 4 -10 4 -5 0 -10
-5 -10 -11z"/>
<path d="M4753 2693 c9 -2 25 -2 35 0 9 3 1 5 -18 5 -19 0 -27 -2 -17 -5z"/>
<path d="M4810 2688 c0 -6 3 -8 6 -5 4 3 15 2 25 -4 20 -10 26 -49 8 -49 -6 0
-9 7 -6 15 5 12 1 12 -21 4 -14 -6 -32 -15 -39 -21 -10 -8 -13 -6 -13 5 0 23
-17 30 -41 16 -26 -13 -156 -22 -143 -9 5 5 23 16 39 24 17 9 23 16 15 16 -19
0 -130 -72 -155 -101 -20 -22 -20 -22 0 -14 11 4 56 10 101 12 65 4 87 2 115
-13 19 -10 36 -19 39 -19 3 0 16 -6 30 -13 23 -12 23 -12 -2 8 -16 12 -28 28
-28 36 0 8 11 14 28 15 74 1 108 9 121 29 7 11 22 20 32 20 42 0 17 28 -39 44
-70 19 -72 19 -72 4z m92 -40 c-11 -11 -32 -3 -32 12 0 4 9 6 21 3 13 -4 17
-9 11 -15z"/>
<path d="M4668 2683 c7 -3 16 -2 19 1 4 3 -2 6 -13 5 -11 0 -14 -3 -6 -6z"/>
<path d="M4950 2642 c0 -11 70 -55 77 -48 2 2 -8 13 -24 23 -44 31 -53 35 -53
25z"/>
<path d="M5072 2499 c-13 -16 -28 -27 -33 -23 -5 3 -12 -8 -15 -25 -4 -17 -10
-31 -15 -31 -13 0 -11 -34 4 -49 10 -11 7 -12 -13 -6 -17 4 -21 3 -12 -3 8 -5
12 -18 10 -28 -3 -15 -7 -13 -22 15 -10 19 -27 43 -37 54 -10 12 -19 24 -19
29 0 7 -104 88 -115 88 -3 0 28 -31 68 -69 54 -51 87 -94 125 -163 49 -89 74
-110 32 -28 -24 47 -25 60 -5 60 8 0 17 14 21 35 3 19 10 35 14 35 4 0 7 8 6
18 -1 12 5 16 20 15 12 -1 21 3 21 10 0 7 1 25 1 41 2 28 2 29 22 11 28 -25
25 -3 -3 23 -13 12 -25 22 -28 21 -2 0 -14 -13 -27 -30z"/>
<path d="M11581 2178 c-14 -23 -14 -23 8 -4 22 20 25 26 13 26 -4 0 -13 -10
-21 -22z"/>
<path d="M11536 2123 c-6 -14 -5 -15 5 -6 7 7 10 15 7 18 -3 3 -9 -2 -12 -12z"/>
<path d="M6141 2005 c-24 -75 -27 -101 -6 -65 14 25 14 24 8 -10 -6 -32 -5
-34 10 -22 17 15 19 52 3 64 -6 4 -5 23 3 48 20 69 6 56 -18 -15z"/>
<path d="M5130 2008 c0 -2 14 -39 31 -83 17 -44 42 -111 55 -150 14 -38 29
-74 34 -79 5 -5 -4 31 -21 79 -33 100 -34 109 -15 102 10 -4 12 0 9 14 -6 21
-23 26 -23 7 -1 -8 -7 -5 -15 6 -8 10 -12 23 -9 27 3 5 1 9 -5 9 -5 0 -12 13
-16 30 -4 16 -11 32 -16 35 -5 4 -9 5 -9 3z"/>
<path d="M5181 1997 c-16 -16 -14 -27 7 -27 14 0 14 2 3 9 -11 7 -9 10 10 13
19 2 20 5 8 10 -9 3 -22 1 -28 -5z"/>
<path d="M5426 1970 c3 -14 11 -32 16 -40 6 -10 7 -7 2 10 -3 14 -11 32 -16
40 -6 10 -7 7 -2 -10z"/>
<path d="M5231 1914 c0 -11 3 -14 6 -6 3 7 2 16 -1 19 -3 4 -6 -2 -5 -13z"/>
<path d="M5450 1903 c0 -7 4 -14 10 -18 5 -3 7 -12 3 -20 -3 -8 -1 -15 4 -15
5 0 15 -16 22 -36 7 -19 15 -34 17 -32 5 6 -26 87 -43 113 -7 11 -13 14 -13 8z"/>
<path d="M5430 1820 c0 -5 5 -10 10 -10 6 0 10 5 10 10 0 6 -4 10 -10 10 -5 0
-10 -4 -10 -10z"/>
<path d="M5436 1791 c-12 -19 -27 -74 -32 -116 -10 -83 -10 -96 3 -107 10 -8
13 -5 13 14 0 13 5 29 12 36 9 9 9 12 0 12 -7 0 -12 5 -12 10 0 6 7 10 16 10
10 0 14 6 11 15 -4 8 -3 17 2 19 4 3 7 19 6 36 -1 16 2 30 7 30 12 0 10 14 -5
35 -10 13 -16 15 -21 6z"/>
<path d="M5261 1677 c-2 -18 41 -147 50 -153 5 -3 9 -4 9 -2 -1 10 -59 161
-59 155z"/>
<path d="M5415 1539 c-4 -6 -5 -12 -2 -15 2 -3 7 2 10 11 7 17 1 20 -8 4z"/>
<path d="M5326 1490 c9 -38 44 -114 49 -108 4 4 -5 28 -43 108 l-12 25 6 -25z"/>
<path d="M5395 1500 c-3 -5 -1 -10 4 -10 6 0 11 5 11 10 0 6 -2 10 -4 10 -3 0
-8 -4 -11 -10z"/>
<path d="M6239 1408 c-7 -13 -19 -34 -28 -48 -10 -15 -11 -21 -3 -16 13 8 56
86 48 86 -3 0 -11 -10 -17 -22z"/>
<path d="M5407 1315 c9 -19 18 -33 21 -31 4 5 -26 66 -33 66 -3 0 3 -16 12
-35z"/>
<path d="M5570 1210 c0 -5 5 -10 11 -10 5 0 7 -5 3 -12 -4 -7 -3 -8 4 -4 17
10 15 36 -3 36 -8 0 -15 -4 -15 -10z"/>
<path d="M6049 1173 c-13 -16 -12 -17 4 -4 9 7 17 15 17 17 0 8 -8 3 -21 -13z"/>
<path d="M5965 1120 c-3 -5 -2 -10 4 -10 5 0 13 5 16 10 3 6 2 10 -4 10 -5 0
-13 -4 -16 -10z"/>
</g>
</svg>
